<?xml version="1.0" encoding="UTF-8"?>
<!DOCTYPE svg PUBLIC "-//W3C//DTD SVG 1.1//EN" "http://www.w3.org/Graphics/SVG/1.1/DTD/svg11.dtd">
<svg xmlns="http://www.w3.org/2000/svg" version="1.1" width="512px" height="512px" style="shape-rendering:geometricPrecision; text-rendering:geometricPrecision; image-rendering:optimizeQuality; fill-rule:evenodd; clip-rule:evenodd" xmlns:xlink="http://www.w3.org/1999/xlink">
<g><path style="opacity:0.949" fill="#000000" d="M 244.5,94.5 C 286.976,91.9734 316.142,110.307 332,149.5C 342.11,190.416 329.61,222.249 294.5,245C 255.937,262.547 222.104,256.047 193,225.5C 172.769,197.149 170.102,167.149 185,135.5C 198.661,112.762 218.494,99.0952 244.5,94.5 Z M 247.5,117.5 C 276.519,115.917 297.019,128.251 309,154.5C 317.49,183.033 309.656,205.866 285.5,223C 262.655,235.364 240.655,234.03 219.5,219C 194.832,194.487 191.999,167.654 211,138.5C 220.931,127.456 233.097,120.456 247.5,117.5 Z"/></g>
<g><path style="opacity:0.951" fill="#000000" d="M 200.5,275.5 C 240.19,275.061 279.857,275.561 319.5,277C 368.446,287.279 396.946,317.113 405,366.5C 405.967,381.593 405.633,396.593 404,411.5C 397.333,418.167 390.667,418.167 384,411.5C 382.719,397.568 382.052,383.568 382,369.5C 375.958,334.128 355.791,311.294 321.5,301C 316.547,300.005 311.547,299.338 306.5,299C 272.5,298.333 238.5,298.333 204.5,299C 166.85,302.655 142.35,322.488 131,358.5C 130.226,362.147 129.559,365.814 129,369.5C 128.948,383.568 128.281,397.568 127,411.5C 122.402,416.645 116.902,417.812 110.5,415C 108.622,413.457 107.122,411.624 106,409.5C 105.333,395.167 105.333,380.833 106,366.5C 115.512,313.152 147.012,282.818 200.5,275.5 Z"/></g>
</svg>
